<svg width="64" height="64" viewBox="0 0 64 64" fill="none" xmlns="http://www.w3.org/2000/svg">
  <rect width="64" height="64" rx="12" fill="#232F3E"/>
  <path d="M17.5 28.5C17.5 21.6 22.7 16.5 29.8 16.5C36 16.5 41.1 19.8 41.1 27.2V39C41.1 40.7 41.7 41.6 42.9 41.6C43.7 41.6 44.5 41.2 45 40.6L45 43.9C43.9 44.9 42.2 45.5 40.4 45.5C36.2 45.5 33.1 42.8 33.1 37.8V26.6C33.1 23.6 31.7 21.9 29 21.9C26.2 21.9 24.6 23.8 24.6 26.6V46.5H17.5V28.5Z" fill="white"/>
  <path d="M11.2 44.6C17.4 47.9 24.4 49.6 31.7 49.6C38.4 49.6 45.3 48.2 52.2 45.5C53.2 45.1 54.1 46.6 53.1 47.2C46.3 51.3 38.5 53.5 30.6 53.5C23 53.5 15.7 51.7 9.3 48C8.5 47.5 9.1 44.2 11.2 44.6Z" fill="#FF9900"/>
  <path d="M42.9 42C46 42 48.5 42.7 50.8 43.8C51.5 44.1 51.5 45.5 50.6 45.8C48.5 46.3 46 45.5 43.1 43.7C40 41.9 40.3 42.1 39.1 41.2C38.5 40.7 38.8 39.7 39.6 39.7C39.6 39.7 41.2 39.5 42.9 39.5V42Z" fill="#FF9900"/>
</svg>
